{
  "accessors": [
    {
      "bufferView": 2,
      "componentType": 5126,
      "count": 48,
      "max": [
        1.0,
        1.0,
        0.0
      ],
      "min": [
        -1.0,
        -1.0,
        -0.5187037587165833
      ],
      "type": "VEC3"
    },
    {
      "bufferView": 2,
      "byteOffset": 576,
      "componentType": 5126,
      "count": 48,
      "max": [
        1.0,
        1.0,
        1.0
      ],
      "min": [
        -1.0,
        -1.0,
        -1.0
      ],
      "type": "VEC3"
    },
    {
      "bufferView": 1,
      "componentType": 5126,
      "count": 48,
      "max": [
        1.9789879322052002,
        1.0937215089797974
      ],
      "min": [
        -0.9272502660751343,
        -0.16379940509796143
      ],
      "type": "VEC2"
    },
    {
      "bufferView": 0,
      "componentType": 5125,
      "count": 72,
      "type": "SCALAR"
    },
    {
      "bufferView": 2,
      "byteOffset": 1152,
      "componentType": 5126,
      "count": 48,
      "max": [
        1.0,
        1.0,
        0.0
      ],
      "min": [
        -1.0,
        -1.0,
        -0.5187037587165833
      ],
      "type": "VEC3"
    },
    {
      "bufferView": 2,
      "byteOffset": 1728,
      "componentType": 5126,
      "count": 48,
      "max": [
        1.0,
        1.0,
        1.0
      ],
      "min": [
        -1.0,
        -1.0,
        -1.0
      ],
      "type": "VEC3"
    },
    {
      "bufferView": 1,
      "byteOffset": 384,
      "componentType": 5126,
      "count": 48,
      "max": [
        1.9789879322052002,
        1.0937215089797974
      ],
      "min": [
        -0.9272502660751343,
        -0.16379940509796143
      ],
      "type": "VEC2"
    },
    {
      "bufferView": 0,
      "byteOffset": 288,
      "componentType": 5125,
      "count": 72,
      "type": "SCALAR"
    },
    {
      "bufferView": 2,
      "byteOffset": 2304,
      "componentType": 5126,
      "count": 48,
      "max": [
        1.0,
        1.0,
        0.0
      ],
      "min": [
        -1.0,
        -1.0,
        -0.5187037587165833
      ],
      "type": "VEC3"
    },
    {
      "bufferView": 2,
      "byteOffset": 2880,
      "componentType": 5126,
      "count": 48,
      "max": [
        1.0,
        1.0,
        1.0
      ],
      "min": [
        -1.0,
        -1.0,
        -1.0
      ],
      "type": "VEC3"
    },
    {
      "bufferView": 1,
      "byteOffset": 768,
      "componentType": 5126,
      "count": 48,
      "max": [
        1.9789879322052002,
        1.0937215089797974
      ],
      "min": [
        -0.9272502660751343,
        -0.16379940509796143
      ],
      "type": "VEC2"
    },
    {
      "bufferView": 0,
      "byteOffset": 576,
      "componentType": 5125,
      "count": 72,
      "type": "SCALAR"
    },
    {
      "bufferView": 2,
      "byteOffset": 3456,
      "componentType": 5126,
      "count": 760,
      "max": [
        14.110006332397461,
        10.990832328796387,
        1.0781071186065674
      ],
      "min": [
        -13.938933372497559,
        -10.922379493713379,
        -1.056743860244751
      ],
      "type": "VEC3"
    },
    {
      "bufferView": 2,
      "byteOffset": 12576,
      "componentType": 5126,
      "count": 760,
      "max": [
        0.9999578595161438,
        1.0,
        1.0
      ],
      "min": [
        -0.9999578595161438,
        -1.0,
        -1.0
      ],
      "type": "VEC3"
    },
    {
      "bufferView": 1,
      "byteOffset": 1152,
      "componentType": 5126,
      "count": 760,
      "max": [
        0.6905210614204407,
        0.03568561002612114
      ],
      "min": [
        0.6706940531730652,
        0.01735500618815422
      ],
      "type": "VEC2"
    },
    {
      "bufferView": 0,
      "byteOffset": 864,
      "componentType": 5125,
      "count": 1140,
      "type": "SCALAR"
    },
    {
      "bufferView": 2,
      "byteOffset": 21696,
      "componentType": 5126,
      "count": 859,
      "max": [
        1.0550897121429443,
        34.15618133544922,
        3.9403271675109863
      ],
      "min": [
        -1.001209020614624,
        -0.6952279806137085,
        -4.475722312927246
      ],
      "type": "VEC3"
    },
    {
      "bufferView": 2,
      "byteOffset": 32004,
      "componentType": 5126,
      "count": 859,
      "max": [
        1.0,
        1.0,
        1.0
      ],
      "min": [
        -1.0,
        -1.0,
        -1.0
      ],
      "type": "VEC3"
    },
    {
      "bufferView": 1,
      "byteOffset": 7232,
      "componentType": 5126,
      "count": 859,
      "max": [
        0.6938818693161011,
        0.09109127521514893
      ],
      "min": [
        0.6673991680145264,
        0.011331632733345032
      ],
      "type": "VEC2"
    },
    {
      "bufferView": 0,
      "byteOffset": 5424,
      "componentType": 5125,
      "count": 1440,
      "type": "SCALAR"
    },
    {
      "bufferView": 2,
      "byteOffset": 42312,
      "componentType": 5126,
      "count": 500,
      "max": [
        1.1495243310928345,
        1.1495243310928345,
        1.0
      ],
      "min": [
        -1.1495243310928345,
        -1.1495243310928345,
        -1.0
      ],
      "type": "VEC3"
    },
    {
      "bufferView": 2,
      "byteOffset": 48312,
      "componentType": 5126,
      "count": 500,
      "max": [
        0.9940483570098877,
        0.9659258723258972,
        1.0
      ],
      "min": [
        -0.9940483570098877,
        -0.9659258723258972,
        -1.0
      ],
      "type": "VEC3"
    },
    {
      "bufferView": 1,
      "byteOffset": 14104,
      "componentType": 5126,
      "count": 500,
      "max": [
        0.6938947439193726,
        0.09362644702196121
      ],
      "min": [
        0.6676754951477051,
        0.040835656225681305
      ],
      "type": "VEC2"
    },
    {
      "bufferView": 0,
      "byteOffset": 11184,
      "componentType": 5125,
      "count": 858,
      "type": "SCALAR"
    },
    {
      "bufferView": 2,
      "byteOffset": 54312,
      "componentType": 5126,
      "count": 344,
      "max": [
        1.2211195230484009,
        1.2211195230484009,
        0.5412778258323669
      ],
      "min": [
        -1.2211195230484009,
        -1.2211195230484009,
        -0.5412778258323669
      ],
      "type": "VEC3"
    },
    {
      "bufferView": 2,
      "byteOffset": 58440,
      "componentType": 5126,
      "count": 344,
      "max": [
        0.959545373916626,
        0.959545373916626,
        0.9924231171607971
      ],
      "min": [
        -0.9595454335212708,
        -0.959545373916626,
        -0.9924231171607971
      ],
      "type": "VEC3"
    },
    {
      "bufferView": 1,
      "byteOffset": 18104,
      "componentType": 5126,
      "count": 344,
      "max": [
        0.4702014923095703,
        0.1107206866145134
      ],
      "min": [
        0.44656288623809814,
        0.05319448187947273
      ],
      "type": "VEC2"
    },
    {
      "bufferView": 0,
      "byteOffset": 14616,
      "componentType": 5125,
      "count": 558,
      "type": "SCALAR"
    },
    {
      "bufferView": 2,
      "byteOffset": 62568,
      "componentType": 5126,
      "count": 32,
      "max": [
        3.2654471397399902,
        1.3763819932937622,
        1.307114601135254
      ],
      "min": [
        0.1460421085357666,
        -3.342176914215088,
        -1.3048374652862549
      ],
      "type": "VEC3"
    },
    {
      "bufferView": 2,
      "byteOffset": 62952,
      "componentType": 5126,
      "count": 32,
      "max": [
        0.9922099709510803,
        1.0,
        0.7001309394836426
      ],
      "min": [
        -0.9749279022216797,
        -0.9396121501922607,
        0.0
      ],
      "type": "VEC3"
    },
    {
      "bufferView": 1,
      "byteOffset": 20856,
      "componentType": 5126,
      "count": 32,
      "max": [
        0.47119566798210144,
        0.07620204240083694
      ],
      "min": [
        0.4617515504360199,
        0.03282909840345383
      ],
      "type": "VEC2"
    },
    {
      "bufferView": 0,
      "byteOffset": 16848,
      "componentType": 5125,
      "count": 138,
      "type": "SCALAR"
    },
    {
      "bufferView": 2,
      "byteOffset": 63336,
      "componentType": 5126,
      "count": 17,
      "max": [
        1.0105938911437988,
        2.5862112045288086,
        2.1205484867095947
      ],
      "min": [
        -3.1183829307556152,
        -1.4010475873947144,
        -2.118271589279175
      ],
      "type": "VEC3"
    },
    {
      "bufferView": 2,
      "byteOffset": 63540,
      "componentType": 5126,
      "count": 17,
      "max": [
        0.9449001550674438,
        0.96881103515625,
        0.6735817193984985
      ],
      "min": [
        -0.9833292961120605,
        -0.9991370439529419,
        0.0
      ],
      "type": "VEC3"
    },
    {
      "bufferView": 1,
      "byteOffset": 21112,
      "componentType": 5126,
      "count": 17,
      "max": [
        0.46179619431495667,
        0.08970953524112701
      ],
      "min": [
        0.44644400477409363,
        0.019321605563163757
      ],
      "type": "VEC2"
    },
    {
      "bufferView": 0,
      "byteOffset": 17400,
      "componentType": 5125,
      "count": 66,
      "type": "SCALAR"
    },
    {
      "bufferView": 2,
      "byteOffset": 63744,
      "componentType": 5126,
      "count": 101,
      "max": [
        0.23155631124973297,
        0.25323623418807983,
        2.1196017265319824
      ],
      "min": [
        -0.25929516553878784,
        -0.24788133800029755,
        -0.975279688835144
      ],
      "type": "VEC3"
    },
    {
      "bufferView": 2,
      "byteOffset": 64956,
      "componentType": 5126,
      "count": 101,
      "max": [
        0.9997321367263794,
        0.998439610004425,
        0.9816219806671143
      ],
      "min": [
        -0.9999455213546753,
        -0.998810350894928,
        -0.9006063342094421
      ],
      "type": "VEC3"
    },
    {
      "bufferView": 1,
      "byteOffset": 21248,
      "componentType": 5126,
      "count": 101,
      "max": [
        0.688877284526825,
        0.11813443899154663
      ],
      "min": [
        0.670595109462738,
        0.03722301870584488
      ],
      "type": "VEC2"
    },
    {
      "bufferView": 0,
      "byteOffset": 17664,
      "componentType": 5125,
      "count": 348,
      "type": "SCALAR"
    },
    {
      "bufferView": 2,
      "byteOffset": 66168,
      "componentType": 5126,
      "count": 198,
      "max": [
        2.0654735565185547,
        2.004908561706543,
        2.881908655166626
      ],
      "min": [
        -2.173825263977051,
        -2.019843101501465,
        -1.7142958641052246
      ],
      "type": "VEC3"
    },
    {
      "bufferView": 2,
      "byteOffset": 68544,
      "componentType": 5126,
      "count": 198,
      "max": [
        0.9137586951255798,
        0.962378740310669,
        0.7860216498374939
      ],
      "min": [
        -0.9501000046730042,
        -0.8998029232025146,
        0.18783430755138397
      ],
      "type": "VEC3"
    },
    {
      "bufferView": 1,
      "byteOffset": 22056,
      "componentType": 5126,
      "count": 198,
      "max": [
        0.3323041796684265,
        0.32301270961761475
      ],
      "min": [
        0.3108881711959839,
        0.2334340214729309
      ],
      "type": "VEC2"
    },
    {
      "bufferView": 0,
      "byteOffset": 19056,
      "componentType": 5125,
      "count": 540,
      "type": "SCALAR"
    },
    {
      "bufferView": 2,
      "byteOffset": 70920,
      "componentType": 5126,
      "count": 904,
      "max": [
        2.704190969467163,
        2.9767093658447266,
        3.3013176918029785
      ],
      "min": [
        -4.326294898986816,
        -2.2205610275268555,
        -4.207860469818115
      ],
      "type": "VEC3"
    },
    {
      "bufferView": 2,
      "byteOffset": 81768,
      "componentType": 5126,
      "count": 904,
      "max": [
        0.9957976341247559,
        1.0,
        0.9994292855262756
      ],
      "min": [
        -0.9957975745201111,
        -1.0,
        -0.885773777961731
      ],
      "type": "VEC3"
    },
    {
      "bufferView": 1,
      "byteOffset": 23640,
      "componentType": 5126,
      "count": 904,
      "max": [
        0.687170684337616,
        0.10681485384702682
      ],
      "min": [
        0.6701905131340027,
        0.026013340801000595
      ],
      "type": "VEC2"
    },
    {
      "bufferView": 0,
      "byteOffset": 21216,
      "componentType": 5125,
      "count": 1338,
      "type": "SCALAR"
    },
    {
      "bufferView": 2,
      "byteOffset": 92616,
      "componentType": 5126,
      "count": 344,
      "max": [
        3.120680093765259,
        2.136931896209717,
        1.5295048952102661
      ],
      "min": [
        -3.2108700275421143,
        -2.03033447265625,
        -1.5733919143676758
      ],
      "type": "VEC3"
    },
    {
      "bufferView": 2,
      "byteOffset": 96744,
      "componentType": 5126,
      "count": 344,
      "max": [
        0.9911187887191772,
        0.9804911017417908,
        1.0
      ],
      "min": [
        -0.9911187887191772,
        -0.9804911613464355,
        -1.0
      ],
      "type": "VEC3"
    },
    {
      "bufferView": 1,
      "byteOffset": 30872,
      "componentType": 5126,
      "count": 344,
      "max": [
        0.3301129937171936,
        0.31427913904190063
      ],
      "min": [
        0.31161409616470337,
        0.24581412971019745
      ],
      "type": "VEC2"
    },
    {
      "bufferView": 0,
      "byteOffset": 26568,
      "componentType": 5125,
      "count": 720,
      "type": "SCALAR"
    },
    {
      "bufferView": 2,
      "byteOffset": 100872,
      "componentType": 5126,
      "count": 812,
      "max": [
        4.500638008117676,
        3.9656810760498047,
        2.6366636753082275
      ],
      "min": [
        -4.340270042419434,
        -3.555372476577759,
        -3.5335772037506104
      ],
      "type": "VEC3"
    },
    {
      "bufferView": 2,
      "byteOffset": 110616,
      "componentType": 5126,
      "count": 812,
      "max": [
        0.9992436170578003,
        0.9986312389373779,
        0.9954842925071716
      ],
      "min": [
        -0.9999297857284546,
        -0.9993681311607361,
        -0.9940242767333984
      ],
      "type": "VEC3"
    },
    {
      "bufferView": 1,
      "byteOffset": 33624,
      "componentType": 5126,
      "count": 812,
      "max": [
        0.3326067626476288,
        0.3176102042198181
      ],
      "min": [
        0.3086312711238861,
        0.2657175660133362
      ],
      "type": "VEC2"
    },
    {
      "bufferView": 0,
      "byteOffset": 29448,
      "componentType": 5125,
      "count": 1614,
      "type": "SCALAR"
    },
    {
      "bufferView": 2,
      "byteOffset": 120360,
      "componentType": 5126,
      "count": 1291,
      "max": [
        4.26239538192749,
        6.540555477142334,
        20.315509796142578
      ],
      "min": [
        -5.830976486206055,
        -8.105854988098145,
        0.02276097983121872
      ],
      "type": "VEC3"
    },
    {
      "bufferView": 2,
      "byteOffset": 135852,
      "componentType": 5126,
      "count": 1291,
      "max": [
        0.9994218349456787,
        0.9973098039627075,
        0.9996199011802673
      ],
      "min": [
        -0.9990971088409424,
        -0.9978213310241699,
        -0.9609037041664124
      ],
      "type": "VEC3"
    },
    {
      "bufferView": 1,
      "byteOffset": 40120,
      "componentType": 5126,
      "count": 1291,
      "max": [
        0.6926184892654419,
        0.10440695285797119
      ],
      "min": [
        0.6678574085235596,
        0.023591116070747375
      ],
      "type": "VEC2"
    },
    {
      "bufferView": 0,
      "byteOffset": 35904,
      "componentType": 5125,
      "count": 2802,
      "type": "SCALAR"
    },
    {
      "bufferView": 2,
      "byteOffset": 151344,
      "componentType": 5126,
      "count": 32,
      "max": [
        4.5399556159973145,
        2.0394604206085205,
        0.07273624837398529
      ],
      "min": [
        -4.57334566116333,
        -1.0898394584655762,
        -0.13552668690681458
      ],
      "type": "VEC3"
    },
    {
      "bufferView": 2,
      "byteOffset": 151728,
      "componentType": 5126,
      "count": 32,
      "max": [
        0.0,
        4.761819383247712e-09,
        1.0
      ],
      "min": [
        0.0,
        -4.7496562238791284e-09,
        1.0
      ],
      "type": "VEC3"
    },
    {
      "bufferView": 1,
      "byteOffset": 50448,
      "componentType": 5126,
      "count": 32,
      "max": [
        0.3291212022304535,
        0.29889827966690063
      ],
      "min": [
        0.3113803565502167,
        0.21907083690166473
      ],
      "type": "VEC2"
    },
    {
      "bufferView": 0,
      "byteOffset": 47112,
      "componentType": 5125,
      "count": 48,
      "type": "SCALAR"
    },
    {
      "bufferView": 2,
      "byteOffset": 152112,
      "componentType": 5126,
      "count": 32,
      "max": [
        4.5399556159973145,
        2.0394604206085205,
        0.07273624837398529
      ],
      "min": [
        -4.57334566116333,
        -1.0898394584655762,
        -0.13552668690681458
      ],
      "type": "VEC3"
    },
    {
      "bufferView": 2,
      "byteOffset": 152496,
      "componentType": 5126,
      "count": 32,
      "max": [
        0.0,
        4.761819383247712e-09,
        1.0
      ],
      "min": [
        0.0,
        -4.7496562238791284e-09,
        1.0
      ],
      "type": "VEC3"
    },
    {
      "bufferView": 1,
      "byteOffset": 50704,
      "componentType": 5126,
      "count": 32,
      "max": [
        0.3291212022304535,
        0.29889827966690063
      ],
      "min": [
        0.3113803565502167,
        0.21907083690166473
      ],
      "type": "VEC2"
    },
    {
      "bufferView": 0,
      "byteOffset": 47304,
      "componentType": 5125,
      "count": 48,
      "type": "SCALAR"
    },
    {
      "bufferView": 2,
      "byteOffset": 152880,
      "componentType": 5126,
      "count": 32,
      "max": [
        4.5399556159973145,
        2.0394604206085205,
        0.07273624837398529
      ],
      "min": [
        -4.57334566116333,
        -1.0898394584655762,
        -0.13552668690681458
      ],
      "type": "VEC3"
    },
    {
      "bufferView": 2,
      "byteOffset": 153264,
      "componentType": 5126,
      "count": 32,
      "max": [
        0.0,
        4.761819383247712e-09,
        1.0
      ],
      "min": [
        0.0,
        -4.7496562238791284e-09,
        1.0
      ],
      "type": "VEC3"
    },
    {
      "bufferView": 1,
      "byteOffset": 50960,
      "componentType": 5126,
      "count": 32,
      "max": [
        0.3291212022304535,
        0.29889827966690063
      ],
      "min": [
        0.3113803565502167,
        0.21907083690166473
      ],
      "type": "VEC2"
    },
    {
      "bufferView": 0,
      "byteOffset": 47496,
      "componentType": 5125,
      "count": 48,
      "type": "SCALAR"
    },
    {
      "bufferView": 2,
      "byteOffset": 153648,
      "componentType": 5126,
      "count": 32,
      "max": [
        4.5399556159973145,
        2.0394604206085205,
        0.07273624837398529
      ],
      "min": [
        -4.57334566116333,
        -1.0898394584655762,
        -0.13552668690681458
      ],
      "type": "VEC3"
    },
    {
      "bufferView": 2,
      "byteOffset": 154032,
      "componentType": 5126,
      "count": 32,
      "max": [
        0.0,
        4.761819383247712e-09,
        1.0
      ],
      "min": [
        0.0,
        -4.7496562238791284e-09,
        1.0
      ],
      "type": "VEC3"
    },
    {
      "bufferView": 1,
      "byteOffset": 51216,
      "componentType": 5126,
      "count": 32,
      "max": [
        0.3291212022304535,
        0.29889827966690063
      ],
      "min": [
        0.3113803565502167,
        0.21907083690166473
      ],
      "type": "VEC2"
    },
    {
      "bufferView": 0,
      "byteOffset": 47688,
      "componentType": 5125,
      "count": 48,
      "type": "SCALAR"
    },
    {
      "bufferView": 2,
      "byteOffset": 154416,
      "componentType": 5126,
      "count": 32,
      "max": [
        4.5399556159973145,
        2.0394604206085205,
        0.07273624837398529
      ],
      "min": [
        -4.57334566116333,
        -1.0898394584655762,
        -0.13552668690681458
      ],
      "type": "VEC3"
    },
    {
      "bufferView": 2,
      "byteOffset": 154800,
      "componentType": 5126,
      "count": 32,
      "max": [
        0.0,
        4.761819383247712e-09,
        1.0
      ],
      "min": [
        0.0,
        -4.7496562238791284e-09,
        1.0
      ],
      "type": "VEC3"
    },
    {
      "bufferView": 1,
      "byteOffset": 51472,
      "componentType": 5126,
      "count": 32,
      "max": [
        0.3291212022304535,
        0.29889827966690063
      ],
      "min": [
        0.3113803565502167,
        0.21907083690166473
      ],
      "type": "VEC2"
    },
    {
      "bufferView": 0,
      "byteOffset": 47880,
      "componentType": 5125,
      "count": 48,
      "type": "SCALAR"
    },
    {
      "bufferView": 2,
      "byteOffset": 155184,
      "componentType": 5126,
      "count": 32,
      "max": [
        4.5399556159973145,
        2.0394604206085205,
        0.07273624837398529
      ],
      "min": [
        -4.57334566116333,
        -1.0898394584655762,
        -0.13552668690681458
      ],
      "type": "VEC3"
    },
    {
      "bufferView": 2,
      "byteOffset": 155568,
      "componentType": 5126,
      "count": 32,
      "max": [
        0.0,
        4.761819383247712e-09,
        1.0
      ],
      "min": [
        0.0,
        -4.7496562238791284e-09,
        1.0
      ],
      "type": "VEC3"
    },
    {
      "bufferView": 1,
      "byteOffset": 51728,
      "componentType": 5126,
      "count": 32,
      "max": [
        0.3291212022304535,
        0.29889827966690063
      ],
      "min": [
        0.3113803565502167,
        0.21907083690166473
      ],
      "type": "VEC2"
    },
    {
      "bufferView": 0,
      "byteOffset": 48072,
      "componentType": 5125,
      "count": 48,
      "type": "SCALAR"
    },
    {
      "bufferView": 2,
      "byteOffset": 155952,
      "componentType": 5126,
      "count": 330,
      "max": [
        1.0438638925552368,
        1.0485759973526,
        0.4998089075088501
      ],
      "min": [
        -1.0407770872116089,
        -1.0360649824142456,
        -1.50019109249115
      ],
      "type": "VEC3"
    },
    {
      "bufferView": 2,
      "byteOffset": 159912,
      "componentType": 5126,
      "count": 330,
      "max": [
        1.0,
        1.0,
        1.0
      ],
      "min": [
        -1.0,
        -1.0,
        -1.0
      ],
      "type": "VEC3"
    },
    {
      "bufferView": 1,
      "byteOffset": 51984,
      "componentType": 5126,
      "count": 330,
      "max": [
        0.6927053928375244,
        0.08687035739421844
      ],
      "min": [
        0.6693017482757568,
        0.01337495632469654
      ],
      "type": "VEC2"
    },
    {
      "bufferView": 0,
      "byteOffset": 48264,
      "componentType": 5125,
      "count": 1014,
      "type": "SCALAR"
    },
    {
      "bufferView": 2,
      "byteOffset": 163872,
      "componentType": 5126,
      "count": 58,
      "max": [
        1.3345332145690918,
        1.3037933111190796,
        1.21676766872406
      ],
      "min": [
        -1.3673222064971924,
        -1.3597825765609741,
        0.33243900537490845
      ],
      "type": "VEC3"
    },
    {
      "bufferView": 2,
      "byteOffset": 164568,
      "componentType": 5126,
      "count": 58,
      "max": [
        0.9948864579200745,
        0.9923295974731445,
        0.8935561180114746
      ],
      "min": [
        -0.9757934212684631,
        -0.9725869297981262,
        -0.9281293153762817
      ],
      "type": "VEC3"
    },
    {
      "bufferView": 1,
      "byteOffset": 54624,
      "componentType": 5126,
      "count": 58,
      "max": [
        0.3311782479286194,
        0.2809072434902191
      ],
      "min": [
        0.3079521656036377,
        0.2160172164440155
      ],
      "type": "VEC2"
    },
    {
      "bufferView": 0,
      "byteOffset": 52320,
      "componentType": 5125,
      "count": 306,
      "type": "SCALAR"
    },
    {
      "bufferView": 2,
      "byteOffset": 165264,
      "componentType": 5126,
      "count": 246,
      "max": [
        1.0438638925552368,
        1.0485759973526,
        0.4998089075088501
      ],
      "min": [
        -1.0407770872116089,
        -1.0360649824142456,
        -1.3915479183197021
      ],
      "type": "VEC3"
    },
    {
      "bufferView": 2,
      "byteOffset": 168216,
      "componentType": 5126,
      "count": 246,
      "max": [
        1.0,
        1.0,
        1.0
      ],
      "min": [
        -1.0,
        -1.0,
        -1.0
      ],
      "type": "VEC3"
    },
    {
      "bufferView": 1,
      "byteOffset": 55088,
      "componentType": 5126,
      "count": 246,
      "max": [
        0.6927053928375244,
        0.08687035739421844
      ],
      "min": [
        0.6693017482757568,
        0.03854372352361679
      ],
      "type": "VEC2"
    },
    {
      "bufferView": 0,
      "byteOffset": 53544,
      "componentType": 5125,
      "count": 768,
      "type": "SCALAR"
    },
    {
      "bufferView": 2,
      "byteOffset": 171168,
      "componentType": 5126,
      "count": 58,
      "max": [
        1.3345332145690918,
        1.3037933111190796,
        1.21676766872406
      ],
      "min": [
        -1.3673222064971924,
        -1.3597825765609741,
        0.33243900537490845
      ],
      "type": "VEC3"
    },
    {
      "bufferView": 2,
      "byteOffset": 171864,
      "componentType": 5126,
      "count": 58,
      "max": [
        0.9948864579200745,
        0.9923295974731445,
        0.8935561180114746
      ],
      "min": [
        -0.9757934212684631,
        -0.9725869297981262,
        -0.9281293153762817
      ],
      "type": "VEC3"
    },
    {
      "bufferView": 1,
      "byteOffset": 57056,
      "componentType": 5126,
      "count": 58,
      "max": [
        0.3311782479286194,
        0.2809072434902191
      ],
      "min": [
        0.3079521656036377,
        0.2160172164440155
      ],
      "type": "VEC2"
    },
    {
      "bufferView": 0,
      "byteOffset": 56616,
      "componentType": 5125,
      "count": 306,
      "type": "SCALAR"
    },
    {
      "bufferView": 2,
      "byteOffset": 172560,
      "componentType": 5126,
      "count": 84,
      "max": [
        1.001543402671814,
        1.0062555074691772,
        0.31255728006362915
      ],
      "min": [
        -0.9984566569328308,
        -0.993744432926178,
        -1.50019109249115
      ],
      "type": "VEC3"
    },
    {
      "bufferView": 2,
      "byteOffset": 173568,
      "componentType": 5126,
      "count": 84,
      "max": [
        1.0,
        1.0,
        0.005149546079337597
      ],
      "min": [
        -1.0,
        -1.0,
        -1.0
      ],
      "type": "VEC3"
    },
    {
      "bufferView": 1,
      "byteOffset": 57520,
      "componentType": 5126,
      "count": 84,
      "max": [
        0.6896107792854309,
        0.047645144164562225
      ],
      "min": [
        0.670825183391571,
        0.01337495632469654
      ],
      "type": "VEC2"
    },
    {
      "bufferView": 0,
      "byteOffset": 57840,
      "componentType": 5125,
      "count": 246,
      "type": "SCALAR"
    },
    {
      "bufferView": 2,
      "byteOffset": 174576,
      "componentType": 5126,
      "count": 26,
      "max": [
        0.9605897665023804,
        0.9999999403953552,
        1.011968970298767
      ],
      "min": [
        -0.9510578513145447,
        -1.0169626474380493,
        -0.002829701406881213
      ],
      "type": "VEC3"
    },
    {
      "bufferView": 2,
      "byteOffset": 174888,
      "componentType": 5126,
      "count": 26,
      "max": [
        0.9413788318634033,
        0.9801108837127686,
        0.9971784353256226
      ],
      "min": [
        -0.9430722594261169,
        -0.9834364652633667,
        0.14945055544376373
      ],
      "type": "VEC3"
    },
    {
      "bufferView": 1,
      "byteOffset": 58192,
      "componentType": 5126,
      "count": 26,
      "max": [
        0.3313155174255371,
        0.31003618240356445
      ],
      "min": [
        0.3086838126182556,
        0.244708850979805
      ],
      "type": "VEC2"
    },
    {
      "bufferView": 0,
      "byteOffset": 58824,
      "componentType": 5125,
      "count": 120,
      "type": "SCALAR"
    },
    {
      "bufferView": 2,
      "byteOffset": 175200,
      "componentType": 5126,
      "count": 56,
      "max": [
        0.9605897665023804,
        0.9999999403953552,
        1.011968970298767
      ],
      "min": [
        -0.9510578513145447,
        -1.0169626474380493,
        -0.002829701406881213
      ],
      "type": "VEC3"
    },
    {
      "bufferView": 2,
      "byteOffset": 175872,
      "componentType": 5126,
      "count": 56,
      "max": [
        0.9436756372451782,
        0.9801108837127686,
        0.9992993474006653
      ],
      "min": [
        -0.9430722594261169,
        -0.9834364652633667,
        -0.285656601190567
      ],
      "type": "VEC3"
    },
    {
      "bufferView": 1,
      "byteOffset": 58400,
      "componentType": 5126,
      "count": 56,
      "max": [
        0.3313155174255371,
        0.31003618240356445
      ],
      "min": [
        0.3086838126182556,
        0.244708850979805
      ],
      "type": "VEC2"
    },
    {
      "bufferView": 0,
      "byteOffset": 59304,
      "componentType": 5125,
      "count": 246,
      "type": "SCALAR"
    },
    {
      "bufferView": 2,
      "byteOffset": 176544,
      "componentType": 5126,
      "count": 26,
      "max": [
        0.9605897665023804,
        0.9999999403953552,
        1.011968970298767
      ],
      "min": [
        -0.9510578513145447,
        -1.0169626474380493,
        -0.002829701406881213
      ],
      "type": "VEC3"
    },
    {
      "bufferView": 2,
      "byteOffset": 176856,
      "componentType": 5126,
      "count": 26,
      "max": [
        0.9413788318634033,
        0.9801108837127686,
        0.9971784353256226
      ],
      "min": [
        -0.9430722594261169,
        -0.9834364652633667,
        0.14945055544376373
      ],
      "type": "VEC3"
    },
    {
      "bufferView": 1,
      "byteOffset": 58848,
      "componentType": 5126,
      "count": 26,
      "max": [
        0.3313155174255371,
        0.31003618240356445
      ],
      "min": [
        0.3086838126182556,
        0.244708850979805
      ],
      "type": "VEC2"
    },
    {
      "bufferView": 0,
      "byteOffset": 60288,
      "componentType": 5125,
      "count": 120,
      "type": "SCALAR"
    },
    {
      "bufferView": 2,
      "byteOffset": 177168,
      "componentType": 5126,
      "count": 94,
      "max": [
        0.6059837341308594,
        0.644790530204773,
        1.2648849487304688
      ],
      "min": [
        -0.493824303150177,
        -0.6888573169708252,
        -0.0028297007083892822
      ],
      "type": "VEC3"
    },
    {
      "bufferView": 2,
      "byteOffset": 178296,
      "componentType": 5126,
      "count": 94,
      "max": [
        0.9985128045082092,
        0.977621853351593,
        0.8433322310447693
      ],
      "min": [
        -0.9885830283164978,
        -0.9802793264389038,
        0.03325776383280754
      ],
      "type": "VEC3"
    },
    {
      "bufferView": 1,
      "byteOffset": 59056,
      "componentType": 5126,
      "count": 94,
      "max": [
        0.4667556881904602,
        0.12542495131492615
      ],
      "min": [
        0.4486898183822632,
        0.00286991149187088
      ],
      "type": "VEC2"
    },
    {
      "bufferView": 0,
      "byteOffset": 60768,
      "componentType": 5125,
      "count": 210,
      "type": "SCALAR"
    },
    {
      "bufferView": 2,
      "byteOffset": 179424,
      "componentType": 5126,
      "count": 94,
      "max": [
        0.6059837341308594,
        0.644790530204773,
        1.2648849487304688
      ],
      "min": [
        -0.493824303150177,
        -0.6888573169708252,
        -0.0028297007083892822
      ],
      "type": "VEC3"
    },
    {
      "bufferView": 2,
      "byteOffset": 180552,
      "componentType": 5126,
      "count": 94,
      "max": [
        0.9985128045082092,
        0.977621853351593,
        0.8433322310447693
      ],
      "min": [
        -0.9885830283164978,
        -0.9802793264389038,
        0.03325776383280754
      ],
      "type": "VEC3"
    },
    {
      "bufferView": 1,
      "byteOffset": 59808,
      "componentType": 5126,
      "count": 94,
      "max": [
        0.4667556881904602,
        0.12542495131492615
      ],
      "min": [
        0.4486898183822632,
        0.00286991149187088
      ],
      "type": "VEC2"
    },
    {
      "bufferView": 0,
      "byteOffset": 61608,
      "componentType": 5125,
      "count": 210,
      "type": "SCALAR"
    },
    {
      "bufferView": 2,
      "byteOffset": 181680,
      "componentType": 5126,
      "count": 1014,
      "max": [
        7.1176652908325195,
        2.5559799671173096,
        1.338273525238037
      ],
      "min": [
        -7.0960516929626465,
        -2.410313606262207,
        -1.3687818050384521
      ],
      "type": "VEC3"
    },
    {
      "bufferView": 2,
      "byteOffset": 193848,
      "componentType": 5126,
      "count": 1014,
      "max": [
        1.0,
        1.0,
        1.0
      ],
      "min": [
        -1.0,
        -1.0,
        -1.0
      ],
      "type": "VEC3"
    },
    {
      "bufferView": 1,
      "byteOffset": 60560,
      "componentType": 5126,
      "count": 1014,
      "max": [
        0.6933707594871521,
        0.12542495131492615
      ],
      "min": [
        0.4486898183822632,
        0.00286991149187088
      ],
      "type": "VEC2"
    },
    {
      "bufferView": 0,
      "byteOffset": 62448,
      "componentType": 5125,
      "count": 2340,
      "type": "SCALAR"
    },
    {
      "bufferView": 2,
      "byteOffset": 206016,
      "componentType": 5126,
      "count": 804,
      "max": [
        3.7623398303985596,
        2.6181135177612305,
        0.27325478196144104
      ],
      "min": [
        -3.390230655670166,
        -2.3916022777557373,
        -0.11811323463916779
      ],
      "type": "VEC3"
    },
    {
      "bufferView": 2,
      "byteOffset": 215664,
      "componentType": 5126,
      "count": 804,
      "max": [
        0.9985936284065247,
        0.9991493821144104,
        0.9999980330467224
      ],
      "min": [
        -0.9999787211418152,
        -0.9988042712211609,
        -0.9999980926513672
      ],
      "type": "VEC3"
    },
    {
      "bufferView": 1,
      "byteOffset": 68672,
      "componentType": 5126,
      "count": 804,
      "max": [
        0.3311309218406677,
        0.310806006193161
      ],
      "min": [
        0.3075755834579468,
        0.21846279501914978
      ],
      "type": "VEC2"
    },
    {
      "bufferView": 0,
      "byteOffset": 71808,
      "componentType": 5125,
      "count": 1728,
      "type": "SCALAR"
    },
    {
      "bufferView": 2,
      "byteOffset": 225312,
      "componentType": 5126,
      "count": 411,
      "max": [
        0.776123046875,
        0.5408542156219482,
        3.702746629714966
      ],
      "min": [
        -0.6405273675918579,
        -0.9909034967422485,
        -3.1894378662109375
      ],
      "type": "VEC3"
    },
    {
      "bufferView": 2,
      "byteOffset": 230244,
      "componentType": 5126,
      "count": 411,
      "max": [
        0.9834746718406677,
        0.9946749210357666,
        0.9881697297096252
      ],
      "min": [
        -0.984552800655365,
        -0.9942291378974915,
        -0.9736929535865784
      ],
      "type": "VEC3"
    },
    {
      "bufferView": 1,
      "byteOffset": 75104,
      "componentType": 5126,
      "count": 411,
      "max": [
        0.6903729438781738,
        0.09432604908943176
      ],
      "min": [
        0.6690813302993774,
        0.023591116070747375
      ],
      "type": "VEC2"
    },
    {
      "bufferView": 0,
      "byteOffset": 78720,
      "componentType": 5125,
      "count": 1296,
      "type": "SCALAR"
    },
    {
      "bufferView": 2,
      "byteOffset": 235176,
      "componentType": 5126,
      "count": 427,
      "max": [
        0.9510565400123596,
        1.1336032152175903,
        1.0
      ],
      "min": [
        -2.4453606605529785,
        -1.142105221748352,
        -1.0
      ],
      "type": "VEC3"
    },
    {
      "bufferView": 2,
      "byteOffset": 240300,
      "componentType": 5126,
      "count": 427,
      "max": [
        1.0,
        0.9510565400123596,
        1.0
      ],
      "min": [
        -1.0,
        -0.9510565400123596,
        -1.0
      ],
      "type": "VEC3"
    },
    {
      "bufferView": 1,
      "byteOffset": 78392,
      "componentType": 5126,
      "count": 427,
      "max": [
        0.8306319117546082,
        0.1064680814743042
      ],
      "min": [
        0.6698387265205383,
        0.05097381770610809
      ],
      "type": "VEC2"
    },
    {
      "bufferView": 0,
      "byteOffset": 83904,
      "componentType": 5125,
      "count": 1014,
      "type": "SCALAR"
    }
  ],
  "asset": {
    "extras": {
      "author": "Leoprad (https://sketchfab.com/leoprad)",
      "license": "CC-BY-4.0 (http://creativecommons.org/licenses/by/4.0/)",
      "source": "https://sketchfab.com/3d-models/low-poly-assets-nature-items-7d6cb87d62764d329e8290e15bf8d7fe",
      "title": "Low Poly Assets (Nature + Items)"
    },
    "generator": "Sketchfab-16.9.0",
    "version": "2.0"
  },
  "bufferViews": [
    {
      "buffer": 0,
      "byteLength": 87960,
      "name": "floatBufferViews",
      "target": 34963
    },
    {
      "buffer": 0,
      "byteLength": 81808,
      "byteOffset": 87960,
      "byteStride": 8,
      "name": "floatBufferViews",
      "target": 34962
    },
    {
      "buffer": 0,
      "byteLength": 245424,
      "byteOffset": 169768,
      "byteStride": 12,
      "name": "floatBufferViews",
      "target": 34962
    }
  ],
  "buffers": [
    {
      "byteLength": 415192,
      "uri": "scene.bin"
    }
  ],
  "extensionsUsed": [
    "KHR_materials_specular"
  ],
  "images": [
    {
      "uri": "textures/Floor_Checkerbox_baseColor.jpeg"
    },
    {
      "uri": "textures/ATLAS_baseColor.png"
    }
  ],
  "materials": [
    {
      "doubleSided": true,
      "extensions": {
        "KHR_materials_specular": {
          "specularColorFactor": [
            1.0,
            1.0,
            1.0
          ],
          "specularFactor": 0.4190488961490168
        }
      },
      "name": "Floor_Checkerbox",
      "pbrMetallicRoughness": {
        "baseColorFactor": [
          0.6994307030269045,
          0.6994307030269045,
          0.6994307030269045,
          1.0
        ],
        "baseColorTexture": {
          "index": 0
        },
        "metallicFactor": 0.0
      }
    },
    {
      "doubleSided": true,
      "name": "ATLAS",
      "pbrMetallicRoughness": {
        "baseColorTexture": {
          "index": 1
        },
        "metallicFactor": 0.0,
        "roughnessFactor": 0.8211145618000169
      }
    }
  ],
  "meshes": [
    {
      "name": "Plane_Floor_Checkerbox_0",
      "primitives": [
        {
          "attributes": {
            "NORMAL": 1,
            "POSITION": 0,
            "TEXCOORD_0": 2
          },
          "indices": 3,
          "material": 0,
          "mode": 4
        }
      ]
    },
    {
      "name": "Plane.011_Floor_Checkerbox_0",
      "primitives": [
        {
          "attributes": {
            "NORMAL": 5,
            "POSITION": 4,
            "TEXCOORD_0": 6
          },
          "indices": 7,
          "material": 0,
          "mode": 4
        }
      ]
    },
    {
      "name": "Plane.013_Floor_Checkerbox_0",
      "primitives": [
        {
          "attributes": {
            "NORMAL": 9,
            "POSITION": 8,
            "TEXCOORD_0": 10
          },
          "indices": 11,
          "material": 0,
          "mode": 4
        }
      ]
    },
    {
      "name": "Cube.001_ATLAS_0",
      "primitives": [
        {
          "attributes": {
            "NORMAL": 13,
            "POSITION": 12,
            "TEXCOORD_0": 14
          },
          "indices": 15,
          "material": 1,
          "mode": 4
        }
      ]
    },
    {
      "name": "Cube.003_ATLAS_0",
      "primitives": [
        {
          "attributes": {
            "NORMAL": 17,
            "POSITION": 16,
            "TEXCOORD_0": 18
          },
          "indices": 19,
          "material": 1,
          "mode": 4
        }
      ]
    },
    {
      "name": "Cylinder.006_ATLAS_0",
      "primitives": [
        {
          "attributes": {
            "NORMAL": 21,
            "POSITION": 20,
            "TEXCOORD_0": 22
          },
          "indices": 23,
          "material": 1,
          "mode": 4
        }
      ]
    },
    {
      "name": "Cylinder.007_ATLAS_0",
      "primitives": [
        {
          "attributes": {
            "NORMAL": 25,
            "POSITION": 24,
            "TEXCOORD_0": 26
          },
          "indices": 27,
          "material": 1,
          "mode": 4
        }
      ]
    },
    {
      "name": "Cylinder.009_ATLAS_0",
      "primitives": [
        {
          "attributes": {
            "NORMAL": 29,
            "POSITION": 28,
            "TEXCOORD_0": 30
          },
          "indices": 31,
          "material": 1,
          "mode": 4
        }
      ]
    },
    {
      "name": "Cylinder.008_ATLAS_0",
      "primitives": [
        {
          "attributes": {
            "NORMAL": 33,
            "POSITION": 32,
            "TEXCOORD_0": 34
          },
          "indices": 35,
          "material": 1,
          "mode": 4
        }
      ]
    },
    {
      "name": "Trunk.001_ATLAS_0",
      "primitives": [
        {
          "attributes": {
            "NORMAL": 37,
            "POSITION": 36,
            "TEXCOORD_0": 38
          },
          "indices": 39,
          "material": 1,
          "mode": 4
        }
      ]
    },
    {
      "name": "Leaves.001_ATLAS_0",
      "primitives": [
        {
          "attributes": {
            "NORMAL": 41,
            "POSITION": 40,
            "TEXCOORD_0": 42
          },
          "indices": 43,
          "material": 1,
          "mode": 4
        }
      ]
    },
    {
      "name": "Vert.002_ATLAS_0",
      "primitives": [
        {
          "attributes": {
            "NORMAL": 45,
            "POSITION": 44,
            "TEXCOORD_0": 46
          },
          "indices": 47,
          "material": 1,
          "mode": 4
        }
      ]
    },
    {
      "name": "Icosphere.021_ATLAS_0",
      "primitives": [
        {
          "attributes": {
            "NORMAL": 49,
            "POSITION": 48,
            "TEXCOORD_0": 50
          },
          "indices": 51,
          "material": 1,
          "mode": 4
        }
      ]
    },
    {
      "name": "leaves_ATLAS_0",
      "primitives": [
        {
          "attributes": {
            "NORMAL": 53,
            "POSITION": 52,
            "TEXCOORD_0": 54
          },
          "indices": 55,
          "material": 1,
          "mode": 4
        }
      ]
    },
    {
      "name": "trunk_ATLAS_0",
      "primitives": [
        {
          "attributes": {
            "NORMAL": 57,
            "POSITION": 56,
            "TEXCOORD_0": 58
          },
          "indices": 59,
          "material": 1,
          "mode": 4
        }
      ]
    },
    {
      "name": "Plane.001_ATLAS_0",
      "primitives": [
        {
          "attributes": {
            "NORMAL": 61,
            "POSITION": 60,
            "TEXCOORD_0": 62
          },
          "indices": 63,
          "material": 1,
          "mode": 4
        }
      ]
    },
    {
      "name": "Plane.002_ATLAS_0",
      "primitives": [
        {
          "attributes": {
            "NORMAL": 65,
            "POSITION": 64,
            "TEXCOORD_0": 66
          },
          "indices": 67,
          "material": 1,
          "mode": 4
        }
      ]
    },
    {
      "name": "Plane.003_ATLAS_0",
      "primitives": [
        {
          "attributes": {
            "NORMAL": 69,
            "POSITION": 68,
            "TEXCOORD_0": 70
          },
          "indices": 71,
          "material": 1,
          "mode": 4
        }
      ]
    },
    {
      "name": "Plane.004_ATLAS_0",
      "primitives": [
        {
          "attributes": {
            "NORMAL": 73,
            "POSITION": 72,
            "TEXCOORD_0": 74
          },
          "indices": 75,
          "material": 1,
          "mode": 4
        }
      ]
    },
    {
      "name": "Plane.005_ATLAS_0",
      "primitives": [
        {
          "attributes": {
            "NORMAL": 77,
            "POSITION": 76,
            "TEXCOORD_0": 78
          },
          "indices": 79,
          "material": 1,
          "mode": 4
        }
      ]
    },
    {
      "name": "Plane.006_ATLAS_0",
      "primitives": [
        {
          "attributes": {
            "NORMAL": 81,
            "POSITION": 80,
            "TEXCOORD_0": 82
          },
          "indices": 83,
          "material": 1,
          "mode": 4
        }
      ]
    },
    {
      "name": "Body_ATLAS_0",
      "primitives": [
        {
          "attributes": {
            "NORMAL": 85,
            "POSITION": 84,
            "TEXCOORD_0": 86
          },
          "indices": 87,
          "material": 1,
          "mode": 4
        }
      ]
    },
    {
      "name": "Body.003_ATLAS_0",
      "primitives": [
        {
          "attributes": {
            "NORMAL": 89,
            "POSITION": 88,
            "TEXCOORD_0": 90
          },
          "indices": 91,
          "material": 1,
          "mode": 4
        }
      ]
    },
    {
      "name": "Body.001_ATLAS_0",
      "primitives": [
        {
          "attributes": {
            "NORMAL": 93,
            "POSITION": 92,
            "TEXCOORD_0": 94
          },
          "indices": 95,
          "material": 1,
          "mode": 4
        }
      ]
    },
    {
      "name": "Body.002_ATLAS_0",
      "primitives": [
        {
          "attributes": {
            "NORMAL": 97,
            "POSITION": 96,
            "TEXCOORD_0": 98
          },
          "indices": 99,
          "material": 1,
          "mode": 4
        }
      ]
    },
    {
      "name": "Body.004_ATLAS_0",
      "primitives": [
        {
          "attributes": {
            "NORMAL": 101,
            "POSITION": 100,
            "TEXCOORD_0": 102
          },
          "indices": 103,
          "material": 1,
          "mode": 4
        }
      ]
    },
    {
      "name": "Icosphere_ATLAS_0",
      "primitives": [
        {
          "attributes": {
            "NORMAL": 105,
            "POSITION": 104,
            "TEXCOORD_0": 106
          },
          "indices": 107,
          "material": 1,
          "mode": 4
        }
      ]
    },
    {
      "name": "Icosphere.017_ATLAS_0",
      "primitives": [
        {
          "attributes": {
            "NORMAL": 109,
            "POSITION": 108,
            "TEXCOORD_0": 110
          },
          "indices": 111,
          "material": 1,
          "mode": 4
        }
      ]
    },
    {
      "name": "Icosphere.018_ATLAS_0",
      "primitives": [
        {
          "attributes": {
            "NORMAL": 113,
            "POSITION": 112,
            "TEXCOORD_0": 114
          },
          "indices": 115,
          "material": 1,
          "mode": 4
        }
      ]
    },
    {
      "name": "Icosphere.020_ATLAS_0",
      "primitives": [
        {
          "attributes": {
            "NORMAL": 117,
            "POSITION": 116,
            "TEXCOORD_0": 118
          },
          "indices": 119,
          "material": 1,
          "mode": 4
        }
      ]
    },
    {
      "name": "Icosphere.019_ATLAS_0",
      "primitives": [
        {
          "attributes": {
            "NORMAL": 121,
            "POSITION": 120,
            "TEXCOORD_0": 122
          },
          "indices": 123,
          "material": 1,
          "mode": 4
        }
      ]
    },
    {
      "name": "Cube.010_ATLAS_0",
      "primitives": [
        {
          "attributes": {
            "NORMAL": 125,
            "POSITION": 124,
            "TEXCOORD_0": 126
          },
          "indices": 127,
          "material": 1,
          "mode": 4
        }
      ]
    },
    {
      "name": "Plane.007_ATLAS_0",
      "primitives": [
        {
          "attributes": {
            "NORMAL": 129,
            "POSITION": 128,
            "TEXCOORD_0": 130
          },
          "indices": 131,
          "material": 1,
          "mode": 4
        }
      ]
    },
    {
      "name": "Plane.012_ATLAS_0",
      "primitives": [
        {
          "attributes": {
            "NORMAL": 133,
            "POSITION": 132,
            "TEXCOORD_0": 134
          },
          "indices": 135,
          "material": 1,
          "mode": 4
        }
      ]
    },
    {
      "name": "Cylinder.010_ATLAS_0",
      "primitives": [
        {
          "attributes": {
            "NORMAL": 137,
            "POSITION": 136,
            "TEXCOORD_0": 138
          },
          "indices": 139,
          "material": 1,
          "mode": 4
        }
      ]
    }
  ],
  "nodes": [
    {
      "children": [
        1
      ],
      "matrix": [
        1.0,
        0.0,
        0.0,
        0.0,
        0.0,
        2.220446049250313e-16,
        -1.0,
        0.0,
        0.0,
        1.0,
        2.220446049250313e-16,
        0.0,
        0.0,
        0.0,
        0.0,
        1.0
      ],
      "name": "Sketchfab_model"
    },
    {
      "children": [
        2
      ],
      "matrix": [
        0.009999999776482582,
        0.0,
        0.0,
        0.0,
        0.0,
        0.0,
        0.009999999776482582,
        0.0,
        0.0,
        -0.009999999776482582,
        0.0,
        0.0,
        0.0,
        0.0,
        0.0,
        1.0
      ],
      "name": "26a612b9d91d4e4fa3b1de33af653605.fbx"
    },
    {
      "children": [
        3,
        5,
        7,
        9,
        12,
        14,
        16,
        18,
        20,
        22,
        24,
        26,
        28,
        30,
        32,
        34,
        36,
        38,
        40,
        42,
        44,
        46,
        48,
        50,
        52,
        54,
        56,
        58,
        60,
        62,
        64,
        66,
        68,
        70,
        72,
        74,
        76
      ],
      "name": "RootNode"
    },
    {
      "children": [
        4
      ],
      "matrix": [
        17.890309780937972,
        -28.46557129106613,
        -94.17880091154517,
        0.0,
        5.311456490371943,
        95.86298831617036,
        -27.965647264521408,
        0.0,
        98.243186677874,
        0.000874894229807823,
        18.662120585081233,
        0.0,
        -2648.96533203125,
        3543.072021484375,
        10482.4111328125,
        1.0
      ],
      "name": "Camera"
    },
    {
      "name": "Object_4"
    },
    {
      "children": [
        6
      ],
      "matrix": [
        -1632.999755859251,
        1.6154331368957123e-11,
        0.0006359135838025371,
        0.0,
        0.00026004758919596146,
        5.0416851455038196e-05,
        667.7914428710412,
        0.0,
        -1.9507540278623247e-12,
        99.9999999999997,
        -7.549789970973109e-06,
        0.0,
        -2505.833740234375,
        0.0,
        -69.21939849853516,
        1.0
      ],
      "name": "Plane"
    },
    {
      "mesh": 0,
      "name": "Plane_Floor_Checkerbox_0"
    },
    {
      "children": [
        8
      ],
      "matrix": [
        -1813.2680664061122,
        3.645843653159337e-11,
        0.0007061126557831478,
        0.0,
        0.00019447690104158684,
        3.7704302745376494e-05,
        499.4086303710544,
        0.0,
        -9.293488505011366e-13,
        99.9999999999997,
        -7.549789970973109e-06,
        0.0,
        2114.677978515625,
        0.0,
        -69.21977996826172,
        1.0
      ],
      "name": "Plane.011"
    },
    {
      "mesh": 1,
      "name": "Plane.011_Floor_Checkerbox_0"
    },
    {
      "children": [
        10
      ],
      "matrix": [
        -90.21337289385363,
        21.019613180140976,
        37.679214599985414,
        0.0,
        40.54260416188817,
        71.17293176353643,
        57.36471940099974,
        0.0,
        -14.759560702385672,
        67.02678816305489,
        -72.72940644812468,
        0.0,
        -1478.43603515625,
        2830.82080078125,
        3313.69482421875,
        1.0
      ],
      "name": "Sun"
    },
    {
      "children": [
        11
      ],
      "matrix": [
        1.0,
        0.0,
        0.0,
        0.0,
        0.0,
        2.220446049250313e-16,
        1.0,
        0.0,
        0.0,
        -1.0,
        2.220446049250313e-16,
        0.0,
        0.0,
        0.0,
        0.0,
        1.0
      ],
      "name": "Object_10"
    },
    {
      "name": "Object_11"
    },
    {
      "children": [
        13
      ],
      "matrix": [
        -2422.374267577941,
        2.3963161340154946e-11,
        0.0009433073680993885,
        0.0,
        0.00020441191141156419,
        3.9630457660237024e-05,
        524.9213256835525,
        0.0,
        -2.129146253853664e-12,
        109.1447830200192,
        -8.240201882285795e-06,
        0.0,
        -39.25151824951172,
        0.0,
        1999.059326171875,
        1.0
      ],
      "name": "Plane.013"
    },
    {
      "mesh": 2,
      "name": "Plane.013_Floor_Checkerbox_0"
    },
    {
      "children": [
        15
      ],
      "matrix": [
        3.4293507894322043e-07,
        -7.845439828743129,
        7.1312848741411194,
        -0.0,
        4.6300714378984e-06,
        -9.07118607064546,
        -9.979610371567812,
        -0.0,
        -99.99999999999406,
        -2.5485933685676088e-05,
        -2.3229313406147867e-05,
        -0.0,
        312.4386901855469,
        105.9210205078125,
        2359.9296875,
        1.0
      ],
      "name": "Cube.001"
    },
    {
      "mesh": 3,
      "name": "Cube.001_ATLAS_0"
    },
    {
      "children": [
        17
      ],
      "matrix": [
        100.0,
        0.0,
        0.0,
        0.0,
        0.0,
        -9.895771575809817e-07,
        -6.073981285095135,
        0.0,
        0.0,
        23.556495666503594,
        -3.837840278077549e-06,
        0.0,
        309.22491455078125,
        109.89517974853516,
        2461.10009765625,
        1.0
      ],
      "name": "Cube.003"
    },
    {
      "mesh": 4,
      "name": "Cube.003_ATLAS_0"
    },
    {
      "children": [
        19
      ],
      "matrix": [
        100.0,
        0.0,
        0.0,
        0.0,
        -0.0,
        -1.629206793918314e-05,
        -99.99999999999868,
        0.0,
        0.0,
        120.46811676025231,
        -1.962674742763504e-05,
        0.0,
        -365.1497802734375,
        126.95033264160156,
        2312.293701171875,
        1.0
      ],
      "name": "Cylinder.006"
    },
    {
      "mesh": 5,
      "name": "Cylinder.006_ATLAS_0"
    },
    {
      "children": [
        21
      ],
      "matrix": [
        100.0,
        0.0,
        0.0,
        0.0,
        -0.0,
        -1.629206793918314e-05,
        -99.99999999999868,
        0.0,
        0.0,
        120.46811676025231,
        -1.962674742763504e-05,
        0.0,
        -365.1497802734375,
        126.95033264160156,
        2312.293701171875,
        1.0
      ],
      "name": "Cylinder.007"
    },
    {
      "mesh": 6,
      "name": "Cylinder.007_ATLAS_0"
    },
    {
      "children": [
        23
      ],
      "matrix": [
        43.32401112178157,
        -1.3095898046951117e-15,
        -18.688509382036763,
        0.0,
        -18.688509382036745,
        -2.062432124212425e-06,
        -43.32401112178153,
        0.0,
        -3.782843415824999e-08,
        2.184912919998167,
        -8.769450103991154e-08,
        0.0,
        1438.1334228515625,
        8.925122261047363,
        2233.25048828125,
        1.0
      ],
      "name": "Cylinder.009"
    },
    {
      "mesh": 7,
      "name": "Cylinder.009_ATLAS_0"
    },
    {
      "children": [
        25
      ],
      "matrix": [
        43.32401112178157,
        -1.3095898046951117e-15,
        -18.688509382036763,
        0.0,
        -18.688509382036745,
        -2.062432124212425e-06,
        -43.32401112178153,
        0.0,
        -3.782843415824999e-08,
        2.184912919998167,
        -8.769450103991154e-08,
        0.0,
        1438.1334228515625,
        8.925122261047363,
        2233.25048828125,
        1.0
      ],
      "name": "Cylinder.008"
    },
    {
      "mesh": 8,
      "name": "Cylinder.008_ATLAS_0"
    },
    {
      "children": [
        27
      ],
      "matrix": [
        -353.75970458981686,
        4.332306151579968e-14,
        0.00013775911523775312,
        0.0,
        0.00013775911523775274,
        2.6708114737743336e-05,
        353.7597045898159,
        0.0,
        -1.0357200794106217e-11,
        353.75970458984267,
        -2.670811469846812e-05,
        0.0,
        3403.6064453125,
        341.0439147949219,
        -69.38514709472656,
        1.0
      ],
      "name": "Trunk.001"
    },
    {
      "mesh": 9,
      "name": "Trunk.001_ATLAS_0"
    },
    {
      "children": [
        29
      ],
      "matrix": [
        164.97092035025304,
        -1.2659480298582746e-06,
        -29.91585438709737,
        0.0,
        -29.915854387097397,
        -7.0991479303788375e-06,
        -164.97092035025287,
        0.0,
        -2.106902631817181e-08,
        167.66145324707014,
        -7.211108234484251e-06,
        0.0,
        3411.09326171875,
        696.8960571289063,
        -74.47490692138672,
        1.0
      ],
      "name": "Leaves.001"
    },
    {
      "mesh": 10,
      "name": "Leaves.001_ATLAS_0"
    },
    {
      "children": [
        31
      ],
      "matrix": [
        -124.78493499754912,
        1.5281744486450762e-14,
        4.859304781530997e-05,
        0.0,
        4.859304781530983e-05,
        9.421000521584901e-06,
        124.78493499754877,
        0.0,
        -3.6533913022899764e-12,
        124.78493499755822,
        -9.421000507730991e-06,
        0.0,
        886.5257568359375,
        535.9450073242188,
        -37.540435791015625,
        1.0
      ],
      "name": "Vert.002"
    },
    {
      "mesh": 11,
      "name": "Vert.002_ATLAS_0"
    },
    {
      "children": [
        33
      ],
      "matrix": [
        155.4571738002886,
        -0.39321793203617716,
        150.1639349241919,
        0.0,
        167.09068865421648,
        3.2228641894486465,
        -172.97215174635187,
        0.0,
        -1.8408576249731405,
        230.05400591526077,
        2.5081647227732105,
        0.0,
        993.2500610351563,
        904.632080078125,
        -56.756591796875,
        1.0
      ],
      "name": "Icosphere.021"
    },
    {
      "mesh": 12,
      "name": "Icosphere.021_ATLAS_0"
    },
    {
      "children": [
        35
      ],
      "matrix": [
        -153.9888907486991,
        2.0156063116388898e-06,
        47.293612548688266,
        0.0,
        70.97962839970974,
        1.7323690094398648e-05,
        231.11100324116146,
        0.0,
        -1.1958116472062805e-06,
        131.75440979003872,
        -9.508825927077382e-06,
        0.0,
        2339.29345703125,
        1911.0567626953125,
        -85.15262603759766,
        1.0
      ],
      "name": "leaves"
    },
    {
      "mesh": 13,
      "name": "leaves_ATLAS_0"
    },
    {
      "children": [
        37
      ],
      "matrix": [
        92.92397875899474,
        1.5855308094225862e-06,
        36.9477221435624,
        0.0,
        36.94772214356218,
        -1.5661641339370647e-05,
        -92.92397875899353,
        0.0,
        4.313281404266789e-06,
        99.99999999999876,
        -1.5139237774519643e-05,
        0.0,
        2366.317138671875,
        -49.46012496948242,
        -104.76436614990234,
        1.0
      ],
      "name": "trunk"
    },
    {
      "mesh": 14,
      "name": "trunk_ATLAS_0"
    },
    {
      "children": [
        39
      ],
      "matrix": [
        4.013914108276367,
        0.0,
        0.0,
        0.0,
        0.0,
        22.127281188964822,
        9.672141797806742e-07,
        0.0,
        0.0,
        -4.371138828673792e-06,
        99.9999999999999,
        0.0,
        -1416.473388671875,
        25.006216049194336,
        2304.059814453125,
        1.0
      ],
      "name": "Plane.001"
    },
    {
      "mesh": 15,
      "name": "Plane.001_ATLAS_0"
    },
    {
      "children": [
        41
      ],
      "matrix": [
        4.013914108276367,
        0.0,
        0.0,
        0.0,
        0.0,
        22.127281188964822,
        9.672141797806742e-07,
        0.0,
        0.0,
        -4.371138828673792e-06,
        99.9999999999999,
        0.0,
        -1432.5216064453125,
        25.006216049194336,
        2280.990478515625,
        1.0
      ],
      "name": "Plane.002"
    },
    {
      "mesh": 16,
      "name": "Plane.002_ATLAS_0"
    },
    {
      "children": [
        43
      ],
      "matrix": [
        4.013914108276367,
        0.0,
        0.0,
        0.0,
        0.0,
        22.127281188964822,
        9.672141797806742e-07,
        0.0,
        0.0,
        -4.371138828673792e-06,
        99.9999999999999,
        0.0,
        -1380.36474609375,
        25.006216049194336,
        2278.984375,
        1.0
      ],
      "name": "Plane.003"
    },
    {
      "mesh": 17,
      "name": "Plane.003_ATLAS_0"
    },
    {
      "children": [
        45
      ],
      "matrix": [
        4.013914108276367,
        0.0,
        0.0,
        0.0,
        0.0,
        22.127281188964822,
        9.672141797806742e-07,
        0.0,
        0.0,
        -4.371138828673792e-06,
        99.9999999999999,
        0.0,
        -1378.35888671875,
        25.006216049194336,
        2342.174560546875,
        1.0
      ],
      "name": "Plane.004"
    },
    {
      "mesh": 18,
      "name": "Plane.004_ATLAS_0"
    },
    {
      "children": [
        47
      ],
      "matrix": [
        4.013914108276367,
        0.0,
        0.0,
        0.0,
        0.0,
        22.127281188964822,
        9.672141797806742e-07,
        0.0,
        0.0,
        -4.371138828673792e-06,
        99.9999999999999,
        0.0,
        -1451.5789794921875,
        25.006216049194336,
        2351.20166015625,
        1.0
      ],
      "name": "Plane.005"
    },
    {
      "mesh": 19,
      "name": "Plane.005_ATLAS_0"
    },
    {
      "children": [
        49
      ],
      "matrix": [
        4.013914108276367,
        0.0,
        0.0,
        0.0,
        0.0,
        22.127281188964822,
        9.672141797806742e-07,
        0.0,
        0.0,
        -4.371138828673792e-06,
        99.9999999999999,
        0.0,
        -1478.660400390625,
        25.006216049194336,
        2282.99658203125,
        1.0
      ],
      "name": "Plane.006"
    },
    {
      "mesh": 20,
      "name": "Plane.006_ATLAS_0"
    },
    {
      "children": [
        51
      ],
      "matrix": [
        156.1187129149114,
        2.8486077158131756e-14,
        488.8350100233024,
        0.0,
        488.83501002316154,
        -0.0003894712264318927,
        -156.11871291486656,
        0.0,
        0.00037100965913153635,
        513.1594848631336,
        -0.00011848895713627373,
        0.0,
        -3445.625244140625,
        770.3016967773438,
        -51.05400085449219,
        1.0
      ],
      "name": "Body"
    },
    {
      "mesh": 21,
      "name": "Body_ATLAS_0"
    },
    {
      "children": [
        53
      ],
      "matrix": [
        156.1187129149114,
        2.8486077158131756e-14,
        488.8350100233024,
        0.0,
        488.83501002316154,
        -0.0003894712264318927,
        -156.11871291486656,
        0.0,
        0.00037100965913153635,
        513.1594848631336,
        -0.00011848895713627373,
        0.0,
        -3445.625244140625,
        770.3016967773438,
        -51.05400085449219,
        1.0
      ],
      "name": "Body.003"
    },
    {
      "mesh": 22,
      "name": "Body.003_ATLAS_0"
    },
    {
      "children": [
        55
      ],
      "matrix": [
        -339.913091442761,
        1.7772088833099465e-05,
        -384.4370036982855,
        0.0,
        -384.43700369828423,
        -6.350431547020563e-05,
        339.91309144275687,
        0.0,
        -3.5802590098219346e-05,
        513.159484863277,
        5.537886514556207e-05,
        0.0,
        -1654.0205078125,
        770.3016967773438,
        -51.05400085449219,
        1.0
      ],
      "name": "Body.001"
    },
    {
      "mesh": 23,
      "name": "Body.001_ATLAS_0"
    },
    {
      "children": [
        57
      ],
      "matrix": [
        -339.913091442761,
        1.7772088833099465e-05,
        -384.4370036982855,
        0.0,
        -384.43700369828423,
        -6.350431547020563e-05,
        339.91309144275687,
        0.0,
        -3.5802590098219346e-05,
        513.159484863277,
        5.537886514556207e-05,
        0.0,
        -1654.0205078125,
        770.3016967773438,
        -51.05400085449219,
        1.0
      ],
      "name": "Body.002"
    },
    {
      "mesh": 24,
      "name": "Body.002_ATLAS_0"
    },
    {
      "children": [
        59
      ],
      "matrix": [
        -339.913091442761,
        1.7772088833099465e-05,
        -384.4370036982855,
        0.0,
        -384.43700369828423,
        -6.350431547020563e-05,
        339.91309144275687,
        0.0,
        -3.5802590098219346e-05,
        513.159484863277,
        5.537886514556207e-05,
        0.0,
        -1654.0205078125,
        770.3016967773438,
        -51.05400085449219,
        1.0
      ],
      "name": "Body.004"
    },
    {
      "mesh": 25,
      "name": "Body.004_ATLAS_0"
    },
    {
      "children": [
        61
      ],
      "matrix": [
        -74.6855163574162,
        9.14633627717232e-15,
        2.90836138796588e-05,
        0.0,
        2.9083613879658714e-05,
        5.638599632013875e-06,
        74.68551635741599,
        0.0,
        -2.186605425347052e-12,
        74.68551635742165,
        -5.638599623722117e-06,
        0.0,
        1173.2305908203125,
        0.0,
        1837.74951171875,
        1.0
      ],
      "name": "Icosphere"
    },
    {
      "mesh": 26,
      "name": "Icosphere_ATLAS_0"
    },
    {
      "children": [
        63
      ],
      "matrix": [
        -135.78216552733343,
        1.6628516570901985e-14,
        5.287552749909786e-05,
        0.0,
        4.832492434615332e-05,
        9.369017955017493e-06,
        124.09640502928711,
        0.0,
        -2.9277502948264183e-12,
        99.9999999999997,
        -7.549789970973109e-06,
        0.0,
        1026.297607421875,
        0.0,
        1837.74951171875,
        1.0
      ],
      "name": "Icosphere.017"
    },
    {
      "mesh": 27,
      "name": "Icosphere.017_ATLAS_0"
    },
    {
      "children": [
        65
      ],
      "matrix": [
        -137.6152954101458,
        1.6853010196516055e-14,
        5.358937463175793e-05,
        0.0,
        5.358937463175778e-05,
        1.038966578667936e-05,
        137.61529541014542,
        0.0,
        -4.029032217097096e-12,
        137.61529541015582,
        -1.0389665771400993e-05,
        0.0,
        1105.658203125,
        0.0,
        1680.980712890625,
        1.0
      ],
      "name": "Icosphere.018"
    },
    {
      "mesh": 28,
      "name": "Icosphere.018_ATLAS_0"
    },
    {
      "children": [
        67
      ],
      "matrix": [
        -95.95941420944783,
        -9.036077514659316e-07,
        96.06553648356208,
        0.0,
        87.79789607451742,
        1.0195772854065335e-05,
        87.70090694881301,
        0.0,
        -6.283113368477089e-06,
        99.99999999999966,
        -5.335556552132914e-06,
        0.0,
        849.58056640625,
        0.0,
        2317.423095703125,
        1.0
      ],
      "name": "Icosphere.020"
    },
    {
      "mesh": 29,
      "name": "Icosphere.020_ATLAS_0"
    },
    {
      "children": [
        69
      ],
      "matrix": [
        -41.007965407001315,
        -1.7494304785995426e-06,
        -38.58557815901641,
        0.0,
        -28.482601379915387,
        1.183257111942946e-05,
        30.270727764539767,
        0.0,
        9.804656623623444e-06,
        56.85292434692149,
        -1.2997842259910418e-05,
        0.0,
        907.6890869140625,
        0.0,
        2269.394775390625,
        1.0
      ],
      "name": "Icosphere.019"
    },
    {
      "mesh": 30,
      "name": "Icosphere.019_ATLAS_0"
    },
    {
      "children": [
        71
      ],
      "matrix": [
        4.740883922372398e-06,
        24.348787307738796,
        -1.351629214537645e-15,
        0.0,
        4.901404140460472e-07,
        -9.461276155096183e-14,
        -11.21310520172118,
        0.0,
        -214.15252685546446,
        4.169703644629832e-05,
        -9.360904586825359e-06,
        0.0,
        -841.6494140625,
        172.45278930664063,
        2379.43798828125,
        1.0
      ],
      "name": "Cube.010"
    },
    {
      "mesh": 31,
      "name": "Cube.010_ATLAS_0"
    },
    {
      "children": [
        73
      ],
      "matrix": [
        -18.52171622619834,
        14.953038974846855,
        3.594357699053006e-06,
        0.0,
        23.983140730049396,
        29.706932989488692,
        -9.483588132017883e-06,
        0.0,
        -1.0442869590026083e-05,
        -3.7576456234554143e-06,
        -38.179740905760106,
        0.0,
        737.4147338867188,
        342.4954528808594,
        1883.162353515625,
        1.0
      ],
      "name": "Plane.007"
    },
    {
      "mesh": 32,
      "name": "Plane.007_ATLAS_0"
    },
    {
      "children": [
        75
      ],
      "matrix": [
        -9.56790876971425e-05,
        70.61116540667155,
        -70.81005098079312,
        0.0,
        -7.849421497230225e-05,
        -70.81005098085676,
        -70.61116540662893,
        0.0,
        -99.99999999992342,
        -1.197832522614739e-05,
        0.00012317609072720614,
        0.0,
        -1484.66015625,
        317.3337097167969,
        1925.8935546875,
        1.0
      ],
      "name": "Plane.012"
    },
    {
      "mesh": 33,
      "name": "Plane.012_ATLAS_0"
    },
    {
      "children": [
        77
      ],
      "matrix": [
        5.547348594452911e-06,
        -73.47686004638652,
        -1.5621746894826157e-12,
        0.0,
        2.3065597167635586e-05,
        1.7130897378138344e-13,
        73.47686004638311,
        0.0,
        -488.94601440427147,
        -3.691439710468443e-05,
        0.00015348821106204508,
        0.0,
        -76.33819580078125,
        85.26673126220703,
        1941.27392578125,
        1.0
      ],
      "name": "Cylinder.010"
    },
    {
      "mesh": 34,
      "name": "Cylinder.010_ATLAS_0"
    }
  ],
  "samplers": [
    {
      "magFilter": 9729,
      "minFilter": 9987,
      "wrapS": 10497,
      "wrapT": 10497
    }
  ],
  "scene": 0,
  "scenes": [
    {
      "name": "Sketchfab_Scene",
      "nodes": [
        0
      ]
    }
  ],
  "textures": [
    {
      "sampler": 0,
      "source": 0
    },
    {
      "sampler": 0,
      "source": 1
    }
  ]
}
